<group> amp_veltrack=90 ampeg_release=0.5 ampeg_attack=0.01 ampeg_vel2attack=-0.01 fil_type=lpf_1p cutoff=1200 fil_keytrack=100 fil_veltrack=9000 bend_up=1200 bend_down=-1200
<region> sample=Pluck1\Pluck1K21.wav pitch_keycenter=21 lokey=0 hikey=21 volume=-6.74
<region> sample=Pluck1\Pluck1K22.wav pitch_keycenter=22 lokey=22 hikey=22 volume=-6.84
<region> sample=Pluck1\Pluck1K23.wav pitch_keycenter=23 lokey=23 hikey=23 volume=-6.96
<region> sample=Pluck1\Pluck1K24.wav pitch_keycenter=24 lokey=24 hikey=24 volume=-7.06
<region> sample=Pluck1\Pluck1K25.wav pitch_keycenter=25 lokey=25 hikey=25 volume=-7.15
<region> sample=Pluck1\Pluck1K26.wav pitch_keycenter=26 lokey=26 hikey=26 volume=-7.32
<region> sample=Pluck1\Pluck1K27.wav pitch_keycenter=27 lokey=27 hikey=27 volume=-7.48
<region> sample=Pluck1\Pluck1K28.wav pitch_keycenter=28 lokey=28 hikey=28 volume=-7.56
<region> sample=Pluck1\Pluck1K29.wav pitch_keycenter=29 lokey=29 hikey=29 volume=-7.80
<region> sample=Pluck1\Pluck1K30.wav pitch_keycenter=30 lokey=30 hikey=30 volume=-7.82
<region> sample=Pluck1\Pluck1K31.wav pitch_keycenter=31 lokey=31 hikey=31 volume=-7.61
<region> sample=Pluck1\Pluck1K32.wav pitch_keycenter=32 lokey=32 hikey=32 volume=-7.38
<region> sample=Pluck1\Pluck1K33.wav pitch_keycenter=33 lokey=33 hikey=33 volume=-7.14
<region> sample=Pluck1\Pluck1K34.wav pitch_keycenter=34 lokey=34 hikey=34 volume=-7.05
<region> sample=Pluck1\Pluck1K35.wav pitch_keycenter=35 lokey=35 hikey=35 volume=-6.98
<region> sample=Pluck1\Pluck1K36.wav pitch_keycenter=36 lokey=36 hikey=36 volume=-6.92
<region> sample=Pluck1\Pluck1K37.wav pitch_keycenter=37 lokey=37 hikey=37 volume=-6.91
<region> sample=Pluck1\Pluck1K38.wav pitch_keycenter=38 lokey=38 hikey=38 volume=-6.89
<region> sample=Pluck1\Pluck1K39.wav pitch_keycenter=39 lokey=39 hikey=39 volume=-6.81
<region> sample=Pluck1\Pluck1K40.wav pitch_keycenter=40 lokey=40 hikey=40 volume=-6.67
<region> sample=Pluck1\Pluck1K41.wav pitch_keycenter=41 lokey=41 hikey=41 volume=-6.69
<region> sample=Pluck1\Pluck1K42.wav pitch_keycenter=42 lokey=42 hikey=42 volume=-6.66
<region> sample=Pluck1\Pluck1K43.wav pitch_keycenter=43 lokey=43 hikey=43 volume=-6.52
<region> sample=Pluck1\Pluck1K44.wav pitch_keycenter=44 lokey=44 hikey=44 volume=-6.60
<region> sample=Pluck1\Pluck1K45.wav pitch_keycenter=45 lokey=45 hikey=45 volume=-6.56
<region> sample=Pluck1\Pluck1K46.wav pitch_keycenter=46 lokey=46 hikey=46 volume=-6.48
<region> sample=Pluck1\Pluck1K47.wav pitch_keycenter=47 lokey=47 hikey=47 volume=-6.37
<region> sample=Pluck1\Pluck1K48.wav pitch_keycenter=48 lokey=48 hikey=48 volume=-6.62
<region> sample=Pluck1\Pluck1K49.wav pitch_keycenter=49 lokey=49 hikey=49 volume=-6.50
<region> sample=Pluck1\Pluck1K50.wav pitch_keycenter=50 lokey=50 hikey=50 volume=-6.65
<region> sample=Pluck1\Pluck1K51.wav pitch_keycenter=51 lokey=51 hikey=51 volume=-6.61
<region> sample=Pluck1\Pluck1K52.wav pitch_keycenter=52 lokey=52 hikey=52 volume=-6.56
<region> sample=Pluck1\Pluck1K53.wav pitch_keycenter=53 lokey=53 hikey=53 volume=-6.39
<region> sample=Pluck1\Pluck1K54.wav pitch_keycenter=54 lokey=54 hikey=54 volume=-6.54
<region> sample=Pluck1\Pluck1K55.wav pitch_keycenter=55 lokey=55 hikey=55 volume=-6.44
<region> sample=Pluck1\Pluck1K56.wav pitch_keycenter=56 lokey=56 hikey=56 volume=-6.67
<region> sample=Pluck1\Pluck1K57.wav pitch_keycenter=57 lokey=57 hikey=57 volume=-6.85
<region> sample=Pluck1\Pluck1K58.wav pitch_keycenter=58 lokey=58 hikey=58 volume=-6.73
<region> sample=Pluck1\Pluck1K59.wav pitch_keycenter=59 lokey=59 hikey=59 volume=-6.58
<region> sample=Pluck1\Pluck1K60.wav pitch_keycenter=60 lokey=60 hikey=60 volume=-6.48
<region> sample=Pluck1\Pluck1K61.wav pitch_keycenter=61 lokey=61 hikey=61 volume=-6.86
<region> sample=Pluck1\Pluck1K62.wav pitch_keycenter=62 lokey=62 hikey=62 volume=-6.43
<region> sample=Pluck1\Pluck1K63.wav pitch_keycenter=63 lokey=63 hikey=63 volume=-6.45
<region> sample=Pluck1\Pluck1K64.wav pitch_keycenter=64 lokey=64 hikey=64 volume=-6.58
<region> sample=Pluck1\Pluck1K65.wav pitch_keycenter=65 lokey=65 hikey=65 volume=-6.55
<region> sample=Pluck1\Pluck1K66.wav pitch_keycenter=66 lokey=66 hikey=66 volume=-6.78
<region> sample=Pluck1\Pluck1K67.wav pitch_keycenter=67 lokey=67 hikey=67 volume=-6.74
<region> sample=Pluck1\Pluck1K68.wav pitch_keycenter=68 lokey=68 hikey=68 volume=-6.48
<region> sample=Pluck1\Pluck1K69.wav pitch_keycenter=69 lokey=69 hikey=69 volume=-6.02
<region> sample=Pluck1\Pluck1K70.wav pitch_keycenter=70 lokey=70 hikey=70 volume=-6.47
<region> sample=Pluck1\Pluck1K71.wav pitch_keycenter=71 lokey=71 hikey=71 volume=-6.64
<region> sample=Pluck1\Pluck1K72.wav pitch_keycenter=72 lokey=72 hikey=72 volume=-6.61
<region> sample=Pluck1\Pluck1K73.wav pitch_keycenter=73 lokey=73 hikey=73 volume=-6.87
<region> sample=Pluck1\Pluck1K74.wav pitch_keycenter=74 lokey=74 hikey=74 volume=-7.60
<region> sample=Pluck1\Pluck1K75.wav pitch_keycenter=75 lokey=75 hikey=75 volume=-7.26
<region> sample=Pluck1\Pluck1K76.wav pitch_keycenter=76 lokey=76 hikey=76 volume=-7.13
<region> sample=Pluck1\Pluck1K77.wav pitch_keycenter=77 lokey=77 hikey=77 volume=-7.32
<region> sample=Pluck1\Pluck1K78.wav pitch_keycenter=78 lokey=78 hikey=78 volume=-7.88
<region> sample=Pluck1\Pluck1K79.wav pitch_keycenter=79 lokey=79 hikey=79 volume=-7.71
<region> sample=Pluck1\Pluck1K80.wav pitch_keycenter=80 lokey=80 hikey=80 volume=-7.82
<region> sample=Pluck1\Pluck1K81.wav pitch_keycenter=81 lokey=81 hikey=81 volume=-8.11
<region> sample=Pluck1\Pluck1K82.wav pitch_keycenter=82 lokey=82 hikey=82 volume=-8.24
<region> sample=Pluck1\Pluck1K83.wav pitch_keycenter=83 lokey=83 hikey=83 volume=-8.27
<region> sample=Pluck1\Pluck1K84.wav pitch_keycenter=84 lokey=84 hikey=84 volume=-8.58
<region> sample=Pluck1\Pluck1K85.wav pitch_keycenter=85 lokey=85 hikey=85 volume=-8.46
<region> sample=Pluck1\Pluck1K86.wav pitch_keycenter=86 lokey=86 hikey=86 volume=-8.77
<region> sample=Pluck1\Pluck1K87.wav pitch_keycenter=87 lokey=87 hikey=87 volume=-8.66
<region> sample=Pluck1\Pluck1K88.wav pitch_keycenter=88 lokey=88 hikey=88 volume=-8.67
<region> sample=Pluck1\Pluck1K89.wav pitch_keycenter=89 lokey=89 hikey=89 volume=-8.36
<region> sample=Pluck1\Pluck1K90.wav pitch_keycenter=90 lokey=90 hikey=90 volume=-8.81
<region> sample=Pluck1\Pluck1K91.wav pitch_keycenter=91 lokey=91 hikey=91 volume=-8.79
<region> sample=Pluck1\Pluck1K92.wav pitch_keycenter=92 lokey=92 hikey=92 volume=-9.19
<region> sample=Pluck1\Pluck1K93.wav pitch_keycenter=93 lokey=93 hikey=127 volume=-8.71

<group> amp_veltrack=90 ampeg_attack=0.05 ampeg_decay=3.0 ampeg_sustain=0.0 ampeg_release=3.0 fil_type=lpf_1p cutoff=600 fil_keytrack=100 fil_veltrack=3000 
<region> sample=Pluck1\AmbPluck1K21.wav pitch_keycenter=21 lokey=21 hikey=32 volume=-18.35 pan=-100 loop_mode=loop_continuous
<region> sample=Pluck1\AmbPluck1K21.wav pitch_keycenter=21 lokey=21 hikey=32 volume=-18.35 pan=100 loop_mode=loop_continuous offset=65536
<region> sample=Pluck1\AmbPluck1K33.wav pitch_keycenter=33 lokey=33 hikey=44 volume=-17.26 pan=-100 loop_mode=loop_continuous
<region> sample=Pluck1\AmbPluck1K33.wav pitch_keycenter=33 lokey=33 hikey=44 volume=-17.26 pan=100 loop_mode=loop_continuous offset=65536
<region> sample=Pluck1\AmbPluck1K45.wav pitch_keycenter=45 lokey=45 hikey=56 volume=-19.84 pan=-100 loop_mode=loop_continuous
<region> sample=Pluck1\AmbPluck1K45.wav pitch_keycenter=45 lokey=45 hikey=56 volume=-19.84 pan=100 loop_mode=loop_continuous offset=65536
<region> sample=Pluck1\AmbPluck1K57.wav pitch_keycenter=57 lokey=57 hikey=68 volume=-19.10 pan=-100 loop_mode=loop_continuous
<region> sample=Pluck1\AmbPluck1K57.wav pitch_keycenter=57 lokey=57 hikey=68 volume=-19.10 pan=100 loop_mode=loop_continuous offset=65536
<region> sample=Pluck1\AmbPluck1K69.wav pitch_keycenter=69 lokey=69 hikey=80 volume=-22.41 pan=-100 loop_mode=loop_continuous
<region> sample=Pluck1\AmbPluck1K69.wav pitch_keycenter=69 lokey=69 hikey=80 volume=-22.41 pan=100 loop_mode=loop_continuous offset=65536
<region> sample=Pluck1\AmbPluck1K81.wav pitch_keycenter=81 lokey=81 hikey=92 volume=-23.50 pan=-100 loop_mode=loop_continuous
<region> sample=Pluck1\AmbPluck1K81.wav pitch_keycenter=81 lokey=81 hikey=92 volume=-23.50 pan=100 loop_mode=loop_continuous offset=65536
<region> sample=Pluck1\AmbPluck1K93.wav pitch_keycenter=93 lokey=93 hikey=104 volume=-22.87 pan=-100 loop_mode=loop_continuous
<region> sample=Pluck1\AmbPluck1K93.wav pitch_keycenter=93 lokey=93 hikey=104 volume=-22.87 pan=100 loop_mode=loop_continuous offset=65536
